<?xml version="1.0" encoding="UTF-8" standalone="no"?>
<!-- Created with Inkscape (http://www.inkscape.org/) -->
<svg xmlns:dc="http://purl.org/dc/elements/1.1/" xmlns:cc="http://creativecommons.org/ns#" xmlns:rdf="http://www.w3.org/1999/02/22-rdf-syntax-ns#" xmlns:svg="http://www.w3.org/2000/svg" xmlns="http://www.w3.org/2000/svg" version="1.1" width="364" height="395" viewBox="0 0 363.742 395.119" id="svg2" xml:space="preserve" style="overflow:visible"><defs id="defs4"/><metadata id="metadata8"><rdf:RDF><cc:Work rdf:about=""><dc:format>image/svg+xml</dc:format><dc:type rdf:resource="http://purl.org/dc/dcmitype/StillImage"/><dc:title/></cc:Work></rdf:RDF></metadata><path d="m 264,26.8 c -2.36,10.2 -8.48,32.5 -9.23,34.2 -1.93,5.01 -3.86,11.4 -7.08,15.7 1.47,2.15 6.65,-3.08 4.76,2.36 -0.895,5.16 -4,9.02 -6.76,13.1 0.933,1.22 2.47,0.571 3.79,0.357 l 0.932,-0.57 c 1.36,6.15 -4.3,10.9 -7.52,15.3 1.32,0.715 3.4,0 5.04,-0.287 1.25,6.01 -4.22,11.6 -7.23,15.7 1.22,0.218 2.83,0 3.9,-0.854 0.824,7.08 -4.86,13.4 -9.41,18 l -0.07,0.283 c 1.39,0.719 3.54,0.292 5.36,-0.14 -0.54,7.08 -5.9,12.3 -10.6,16.5 1.32,0.854 3.33,0 5.01,-0.145 -1.26,6.73 -5.9,12.7 -10.7,16.7 1.44,1.43 3.69,0.571 5.58,0.64 -1.68,6.23 -6.4,11.2 -11.1,15.4 1.14,1 3.18,0.431 4.82,0.714 -2.64,7.16 -8.41,11.8 -13.6,17.3 l -0.21,0.43 c 1.25,1.29 3.25,0.57 4.79,0.854 -1.11,4.01 -9.41,12.3 -10.5,14 l 3.4,1.86 c -2,4.43 -5.83,7.01 -9.09,10.3 0.219,1.36 1.86,1.28 2.83,1.57 -1.86,5.15 -6.16,7.73 -9.77,11 l 2.36,2.01 c -2.86,4.58 -6.76,7.87 -10.8,11.2 0.928,0.575 1.5,1.5 2.72,1.79 -3.58,5.29 -9.02,8.87 -13,13.8 0.824,0.357 0.645,1.93 1.68,1.43 -2.25,4.79 -8.23,7.51 -11.3,12.2 0.574,0.573 -0.285,2.15 1.22,2.22 -5.22,4.36 -10.1,9.23 -15.4,13.4 l 1.72,1.5 c -3.79,4.51 -9.37,7.23 -12.7,12.2 l 0.321,2.15 c -4.83,4.08 -6.51,10.3 -9.59,15.7 -0.251,1.72 -1.54,3.72 -0.177,5.44 3.32,-0.144 4.76,-3.58 6.58,-5.87 3.29,-3.3 5.58,-7.87 8.48,-11.7 l 1.97,-0.788 c 3.15,-3.72 5.76,-8.01 8.7,-12.2 0.785,0.355 1.64,-0.219 2.54,-0.432 2,-3.65 4.76,-6.51 7.44,-9.44 3.4,0.574 4.19,-4.72 6.59,-6.87 1.11,-1.22 2.75,-3.15 4.47,-2.58 2.29,-3.72 4.36,-7.72 8.05,-10.2 0.072,0.787 0.465,1.08 1.07,1.22 1.86,-1.15 2,-3.87 3.47,-5.3 1.97,-1.72 3.36,-4.44 5.91,-5.3 0.034,1.15 0.645,0.57 1.32,0.57 2.65,-3.65 5.33,-7.51 9.56,-9.73 0.606,0.14 0.285,1.21 1.11,1.14 2.18,-1.14 2.61,-4.01 4.51,-5.44 1.54,-1.65 3.43,-2.87 5.61,-3.79 l 0.861,1.78 c 2.47,-1.93 4.19,-5.44 6.87,-7.44 1.61,-0.926 3.01,-2.51 4.72,-2.8 -0.074,0.787 0.462,1.43 0.676,2.22 3.05,-2.86 4.8,-7.15 9.12,-8.59 0.288,0 1.22,-0.859 1.79,-0.283 -0.075,0.714 -0.106,1.42 0.253,2.14 0.893,-0.72 3.04,-3.86 5.26,-6.01 3.08,-3.15 5.76,-4.36 7.59,-5.08 l 0.566,2.36 c 2.97,-2.72 4.62,-6.73 7.91,-8.87 1.18,-0.574 2.25,-1.72 3.65,-1.72 0.036,1.14 -0.143,2.72 1.18,3.44 1.64,-2 3.11,-4.37 5.01,-6.16 0.969,-0.642 0.68,-0.429 1.54,-1.14 2.65,-2.43 5.48,-4.51 8.84,-6.16 l 1.94,3.86 c 6.04,-4.72 11.8,-10.3 19.3,-12.7 0.074,0.933 -0.394,2.36 0.75,2.94 7.02,-7.01 17.4,-10.4 25.6,-16 10.2,-6.58 21,-12.9 32.4,-17.6 0.72,0 1.4,0 2.07,-0.147 -8.33,12.4 -23,18.9 -33.2,29.8 -6.62,4.8 -10.3,12.8 -17.1,17.4 0.79,1.36 2.4,0.929 3.61,1.36 -4.36,5.58 -9.27,10.7 -16,13.9 1.18,0.932 3.15,2 4.79,1.72 0.858,1.44 -1.22,2.72 -2.04,3.73 -1.83,1.93 -4.4,3 -6.55,4.58 l 0.288,0.854 c -3.04,1.86 -6.23,3.58 -9.7,5.01 1.07,0.86 2.86,2.15 4.4,1.72 -2.29,5.36 -8.15,8.16 -14.2,9.73 0.968,1.01 2.14,1.65 3.68,2.15 -3.32,4.15 -8.44,7.3 -14,8.02 0.036,1.15 2.22,1.08 2.93,2.22 -1.43,2.36 -4.62,3.65 -7.23,5.22 -3.08,1.36 -6.19,2 -8.98,2.93 1.11,1.29 2.69,2.08 4.01,3.01 -2.83,2.65 -7.8,5.37 -11.7,6.15 -2.68,0.929 -4.4,0.432 -6.84,1.65 -0.104,1.72 2.44,1.64 3.04,3 -4.83,4.44 -11.7,4.3 -17.6,6.44 -0.179,1.71 2.26,1.71 2.33,3.36 -4.54,3.51 -10.7,4.08 -15.9,5.08 0.183,0.429 0.397,1.86 1.22,2.15 -0.501,1.79 -3.58,2.21 -5.44,2.72 -3.44,1 -6.76,0.859 -10.2,1.72 l 0.751,2 c -4.9,2.15 -10.6,1.72 -15.2,3.73 0.108,0.428 0.496,0.571 0.715,0.641 -1.61,1.43 -4.22,1.22 -6.26,1.79 -3.15,0.715 -6.3,-0.145 -9.37,0.286 0.213,0.429 0.104,0.934 0.606,1 -1.4,1.71 -3.54,0.998 -5.29,1.58 -3.47,0.422 -6.84,0 -10.1,0.711 0.037,3.01 -4.76,2.79 -6.69,4.65 -4.12,0.355 -6.08,4.51 -10.6,5.37 -0.464,0.714 -3.04,2.57 -3.36,3.58 1.82,0.714 5.94,-3.01 8.05,-2.14 6.87,-3.87 13.1,-2.79 19.8,-6.16 5.48,-0.067 8.98,-4.22 14.5,-3.15 6.33,-4.15 12.7,-1 19.1,-4.15 4.47,2.79 9.19,-2.29 13.7,-0.857 -0.109,1.36 1.18,0.998 1.93,0.857 3.4,-0.857 6.94,-3.72 10.4,-1.86 -0.216,0.144 -0.074,0.429 -0.04,0.645 l 0.786,0.358 c 4.12,-0.715 7.12,-3.72 11.3,-2.43 0.075,0.429 -0.426,0.999 -0.14,1.57 l 0.895,0.431 c 4.54,-1.72 9.23,-4.29 13.6,-3.79 0.219,0.788 -0.321,1.65 0.323,2.43 14.2,-3.79 28.2,-3.94 42.3,-5.36 6.36,-0.571 12.7,0.144 19,0.284 l 0.824,0.288 c -6.4,4.29 -14.8,4.72 -22.1,6.58 -9.55,1.29 -19.5,6.44 -28.9,9.02 -0.787,0.859 1,1.14 0.214,2 -4.22,1.29 -8.66,3.22 -12.9,3.79 2.14,2.65 -1.72,3.08 -3.19,3.5 -3.86,0.43 -7.8,1.29 -11.6,1.36 -0.04,1.07 1.32,1.65 1.68,2.65 -3.75,2.64 -8.41,2.36 -12.6,1.86 0,1 0.824,1.22 1,2.07 -2.5,2.22 -6.98,1.29 -10.5,1.65 0.574,0.497 0.718,1.35 1.11,2.14 -4.58,1.86 -9.02,0.288 -13.5,-0.143 l 1.18,2.58 c -2.44,1.43 -5.37,0.431 -8.02,0.213 -2.32,-0.498 -4.69,-1.72 -6.98,-1.79 l 0.467,1.15 c -4.19,0.428 -8.84,-1.29 -13.1,-3.51 -0.749,0.357 -0.606,1.22 -0.714,1.79 -3.97,-1.43 -9.55,-4.72 -13.1,-6.01 -0.393,0.641 0.035,0.283 -0.356,1.43 -3.94,-1.22 -8.3,-3.72 -11.1,-6.15 -1.61,1.29 -4.12,0.14 -6.3,-0.431 -2.25,0.715 -4.58,-0.715 -6.65,0.284 2.97,0.645 6.76,1.65 10.1,2.44 6.51,2.22 14.5,5.15 20.7,8.59 -1.08,0.858 1.72,1.72 2.79,2.43 2.47,1.5 8.09,3.65 10.1,5.65 -0.285,0.073 -1.32,0.212 -0.967,1.15 11.4,7.94 22.6,21.2 33.1,26.8 -10.7,1 -21.6,-8.01 -30.6,-12.7 -0.858,-0.145 -0.965,-0.217 -1.18,0.502 -6.22,-2.58 -15,-10 -15.8,-10.1 -0.501,0 -0.106,1.22 -0.536,0.501 -3.26,-3.01 -7.23,-5.44 -10.7,-8.44 l -0.43,1.28 c -3.36,-2.58 -6.23,-6.01 -9.27,-8.8 0,0 -0.393,0.213 -0.715,1 -0.896,-1.22 -6.94,-7.44 -12.1,-7.37 -0.825,-0.285 -1.32,-0.429 -1.68,-1.14 0,0 -12.5,38.6 -16.3,43.1 -0.25,0.289 -4.54,-1.93 -4.54,-1.93 2.86,-2 17.4,-42.7 17.3,-42.7 -1.08,0 0.035,-0.355 -1.54,-0.355 -1.61,-0.93 -3.08,-3.08 -5.36,-2.65 -3.29,-0.576 -6.83,1.57 -10.1,0.714 l 0.215,-0.501 c -2.11,-0.933 -6.26,0.282 -8.3,-0.074 0.646,-1.29 -3.29,-0.715 -5.22,-0.999 -1.15,0.07 -4.22,-0.435 -5.19,-0.715 -0.751,-0.145 0.607,-0.145 -0.071,-0.505 -2.08,-0.929 -4.94,-1.5 -6.3,-1.36 -1.79,0.141 -8.23,-0.646 -8.05,-0.859 0.179,-0.291 0.895,-0.719 0.895,-0.719 -1.83,-1.14 -5.62,-0.646 -7.3,-1.72 -0.18,-0.14 0.286,-0.431 0.107,-0.57 -9.34,-2.72 -25.8,-5.08 -28,-5.15 -2.25,-0.288 -13.7,1.79 -3.94,-2.22 12.4,-5.08 26.9,-1.5 40.5,-1.64 0.289,-0.146 -1.07,-0.431 -0.786,-0.574 3.51,-1.79 15.9,5.3 13.8,2.79 1.18,-0.144 17.2,5.51 26.6,10 -5.54,-3.51 -13.6,-6.52 -15.2,-7.3 -2.29,-1.22 -4.04,-2.22 -5.97,-3.36 0.211,0.148 1.89,-0.144 0.501,-0.711 -4.47,-2.15 -7.02,-4.15 -7.62,-4.8 0.861,-0.501 1.25,-0.784 1.22,-0.859 -3.22,-1.93 -8.34,-3.08 -10.8,-6.08 0.357,-0.282 0.896,-0.144 1,-0.645 -3.9,-1.93 -10.2,-3.65 -12.4,-7.73 l 1.15,-0.358 -0.25,-0.859 c -3.54,-2.15 -9.02,-3.72 -10.4,-7.8 l 1.61,-0.576 -0.211,-0.645 c -3.44,-2.57 -8.48,-4.15 -9.23,-8.23 0.465,0.216 0.967,-0.215 1.5,-0.358 l 0.107,-0.139 c -3.65,-2.29 -7.91,-4.29 -8.58,-8.59 1.29,-0.284 2.72,-0.146 3.86,-0.933 -4.51,-4.36 -9.05,-8.51 -11.3,-14.7 1.11,-0.788 2.68,0.07 3.72,-0.72 -3.72,-3.36 -6.83,-7.09 -9.02,-11.7 l 2.83,-0.929 c -4.15,-4.15 -7.73,-9.09 -9.27,-15 l 2.11,-0.219 c -5.98,-9.87 -10.1,-21.3 -15.5,-31.7 -3.51,-7.87 -8.41,-17 -7.12,-25.6 10.1,13.8 17.7,29.4 29.8,41.5 0.501,0.427 0.501,2.21 1.76,1.22 2.32,2.22 4.4,4.72 5.54,8.01 0.681,0 1.08,-0.495 1.22,-1.14 l -0.107,-0.282 c 3.9,2.72 6.4,6.87 8.59,11.2 1.4,-0.358 1.79,-3.08 3.22,-0.93 3.32,4.36 5.48,9.87 8.55,14.5 l 1.83,-1.72 c 3.22,3.58 5.19,8.09 7.48,12.3 0.288,-1.86 2.29,-1.86 3.18,-0.427 l 4.51,8.87 c 1.04,-1.44 1.79,0.356 2.72,0.717 2.61,3.29 2.25,9.73 7.15,10.7 2.9,3.08 2.36,8.94 6.26,11.2 1.5,8.59 10.5,12 11.1,20.5 2.04,3.51 3.93,6.87 5.9,10.3 2.97,2.36 4.94,11.3 8.8,12.5 -2.29,-5.58 -2.57,-12.3 -6.01,-17.5 l 0.859,-0.285 -7.69,-13.7 c -0.286,-1.14 0.465,-0.999 1.15,-1.57 l -7.87,-13.3 1.47,-0.579 c -2.76,-5.29 -6.76,-10.1 -8.84,-15.7 0.5,-0.571 2.47,0.785 2.4,-1.29 -2.32,-4.44 -5.83,-8.59 -7.01,-13.5 0.788,0 1.9,0.29 2.5,-0.496 -2.65,-4.73 -6.51,-9.23 -7.23,-14.7 1.04,1.01 1.97,-0.784 3,0 -2.36,-3.94 -6.76,-8.73 -5.83,-14 1.04,0 2.08,0.075 3.22,0 -3.08,-4.07 -5.19,-10 -5.11,-14.9 1.47,-0.714 2.79,1.36 4.29,0.571 -2.4,-4.72 -6.76,-10 -5.72,-15.7 1.07,0.07 2.33,0.645 3.4,0.358 -3,-4 -5.65,-9.95 -4.76,-15 1.5,0 2.93,1.29 4.44,1.07 -2.9,-4.58 -5.08,-10.6 -4.44,-15.7 l 3.18,0.789 c -1.04,-2.58 -4.4,-9.45 -2.97,-12.6 1.26,-0.074 2.36,1.14 3.65,0.719 -3.33,-6.59 -3.04,-12.3 -2.08,-15 1.61,0.64 3.18,2 4.9,1.57 -2.33,-6.36 -5.19,-13.2 -3.11,-19.7 1.5,0 3.58,3.08 5.26,1.65 -2.83,-6.15 -1.97,-12.4 -1.04,-18.5 0.68,0.641 1.25,0.213 1.93,0.213 -1.79,-7.87 -0.966,-15.9 -2.15,-23.8 -2.68,-12.7 -3.18,-25.3 -8.55,-38 6.73,2.28 10.3,9.23 12.5,16.6 4.15,11.7 8.44,22 11.6,33.6 l 0.823,0.287 c 1.11,4.51 3.08,9.02 2.43,13.5 1.47,0.642 1.97,-1.08 2.83,-1.79 1.22,0.287 1.54,2.65 1.86,3.87 0.646,4.01 0.393,7.94 0.288,11.8 1.79,0.568 2.61,-3.15 3.93,-1.5 2.15,5.58 2.11,11.2 1.08,16.6 1.43,-0.428 2.65,-1.72 3.43,-3.14 1.11,0.929 2.04,2.43 2.18,4.01 0.608,5.01 1.22,10 -0.143,14.9 1.72,0.789 2.32,-1.43 3.51,-2 2.61,6.16 1.22,12.6 0.43,18.9 1.61,0.145 2.36,-1.29 3.58,-2.15 1.68,5.44 0.645,10.8 0,16.2 1.43,0.426 2.93,-2.29 3.94,-0.859 1.22,4.87 -0.321,9.73 -0.646,14.7 0.825,0.501 1.65,-0.359 2.51,-0.501 1.4,5.15 0.248,10.4 -1.75,15.5 0.107,0.79 0.822,0.641 1.21,0.929 l 2.68,-0.858 c 0.5,5.3 -1.75,10.4 -2.36,15.7 0.715,0.576 1.36,-0.356 2.11,-0.427 0.859,4.72 -0.357,9.37 -1.61,14 0.074,1.07 1.11,1.72 2.08,1.14 1.25,4.3 -1.32,8.44 -1.36,12.5 1.65,0.57 0.682,2.5 0.717,3.57 -1.29,4.51 -2.83,8.87 -3.29,13.3 l 1.43,0.354 c -0.321,4.8 -3.86,9.95 -4.37,15.1 2.83,4.37 -2.51,8.66 -1.75,13.5 -0.893,1.43 -0.93,3.29 0.43,4.15 -1.93,3.73 -1.93,7.73 -2.83,11.6 1.18,1.29 -0.284,4.29 -0.357,6.66 0.537,3.86 -0.466,7.8 2.68,10.7 l 0.823,-0.284 c 1.18,-9.66 4.83,-19.3 3.51,-29.2 l 0.568,0.219 c 1.51,-5.8 1.47,-12.4 2.15,-18.6 -0.072,-1.65 1.47,-0.857 2.32,-0.932 0.466,-6.86 0.214,-13.6 0.966,-20.5 0.288,0.289 0.682,0.36 0.61,0.72 l 1.9,-0.505 c 0.823,-6.44 0.25,-12.9 1.4,-19.3 0.537,0.933 1.68,0.789 2.47,0.432 1,-5.8 -2.04,-11.8 0,-17.6 l 2.97,1.29 c 1.14,-2.58 -0.79,-6.3 -0.36,-9.3 0.071,-2.28 0.499,-4.58 1.4,-6.86 0.538,0.356 1.9,0.715 2.86,0.998 0.931,-1.5 -0.428,-3.57 -0.212,-5.44 -0.215,-2.79 0.073,-5.58 0.824,-8.45 1.39,0.143 2.54,2.15 4.29,1.86 -0.609,-5.29 -2.4,-11.1 1.32,-16 0.858,0.428 1.46,2.15 2.68,1.22 0,-5.15 -1.5,-10.4 1.32,-15.5 1.11,0.858 2.43,1.86 3.72,2.08 -0.285,-2.15 1.14,-16.2 3.44,-18.1 0.928,1.5 2.11,2.79 3.54,3.94 1.57,-2.57 0.858,-17.6 4.44,-20.4 0.682,1.5 1.68,2.65 3.08,3.36 0.643,-1.58 -0.466,-4.01 -0.288,-5.94 0.931,-4.5 1.11,-9.87 4.04,-13.4 1,1.72 2.69,2.87 4.01,4.15 0.428,-2.5 0.929,-11.6 1.57,-13 0.929,-2.36 1.97,-4.72 3.94,-6.01 0.68,1.5 1.76,2.79 2.9,3.86 1.22,-4.36 0,-10.1 3.65,-14 0.431,0.574 1.97,1.93 2.93,2.86 0.717,-4.44 0.427,-10.7 4.9,-14 0.68,1.15 1.57,2.79 2.93,3.86 0.681,-5.3 0.787,-12.9 6.04,-16.7 0.571,1.72 1.47,3.08 2.76,4.22 0.606,-3.58 1.25,-8.01 3.72,-11.5 0.75,-1.14 1.9,-1.86 2.83,-2.72 0.677,1.86 1.28,3.5 2.61,4.44 1.68,-5.51 4.5,-13 8.12,-17.6 1.07,0.718 1.36,2.29 2.32,3.15 6.3,-12.3 15.6,-22.5 21.2,-36.1 2.97,-8.73 10.3,-26 12.6,-25.2 2.29,0.853 -2.64,17.5 -4.26,26.3 z" id="path10" style="fill:#000000;fill-opacity:1;stroke:none"/></svg>